<svg version="1.0" id="Layer_1" xmlns="http://www.w3.org/2000/svg" xmlns:xlink="http://www.w3.org/1999/xlink" x="0px" y="0px"
	 width="10.9262695px" height="10.9277344px" viewBox="0 0 10.9262695 10.9277344"
	 style="enable-background:new 0 0 10.9262695 10.9277344;" xml:space="preserve">
<path style="fill:none;stroke:#999999;stroke-width:0.75;stroke-miterlimit:10;" d="M7.8491211,1.2548828
	c0.0283203-0.0390625,0.0595703-0.0761719,0.0927734-0.1123047L7.1547852,0.3544922L7.0522461,0.4580078L0.4560547,7.0537109
	L0.3535156,7.15625l0.7192383,0.7197266c0.0361328-0.0341797,0.0732422-0.0644531,0.1118164-0.09375
	C1.7148438,7.3857422,2.46875,7.4257812,2.9506836,7.9082031c0.4819336,0.4814453,0.5229492,1.2363281,0.1259766,1.7666016
	C3.0478516,9.7128906,3.0166016,9.75,2.9833984,9.7861328l0.7875977,0.7880859l0.1025391-0.1025391L10.4692383,3.875
	l0.1035156-0.1025391l-0.7197266-0.71875C9.8168945,3.0869141,9.7797852,3.1181641,9.7407227,3.1464844
	c-0.5292969,0.3974609-1.2832031,0.3564453-1.765625-0.1259766C7.4926758,2.5390625,7.4516602,1.7841797,7.8491211,1.2548828z"/>
</svg>