<svg version="1.0" id="Layer_1" xmlns="http://www.w3.org/2000/svg" xmlns:xlink="http://www.w3.org/1999/xlink" x="0px" y="0px"
	 width="10.9589844px" height="10.7666016px" viewBox="0 0 10.9589844 10.7666016"
	 style="enable-background:new 0 0 10.9589844 10.7666016;" xml:space="preserve">
<g>
	<g>
		<path style="fill:none;stroke:#999999;stroke-width:0.75;stroke-miterlimit:10;" d="M8.1083984,4.6455078
			c-0.4951172,1.1318359-1.5761719,2.078125-2.6230469,2.078125c-1.2788086,0-2.2080078-0.9355469-2.7036133-2.0673828
			c-2.8803711,1.4921875-2.5170898,5.2685547-2.5170898,5.2685547c0,0.5166016,0.4072266,0.5917969,0.8852539,0.5917969h4.3349609
			h4.3286133c0.4785156,0,0.8876953-0.0751953,0.8876953-0.5917969C10.7011719,9.9248047,10.9882812,6.1376953,8.1083984,4.6455078z
			"/>
		<path style="fill:#FFFFFF;stroke:#999999;stroke-width:0.75;stroke-miterlimit:10;" d="M5.4848633,7.1103516
			c1.4418945,0,2.5893555-2.0654297,2.5893555-3.7705078C8.0742188,1.6328125,6.9052734,0.25,5.4624023,0.25
			c-1.4423828,0-2.6123047,1.3828125-2.6123047,3.0898438C2.8500977,5.0458984,4.0419922,7.1103516,5.4848633,7.1103516z"/>
	</g>
</g>
</svg>